<?xml version="1.0" standalone="no"?><!DOCTYPE svg PUBLIC "-//W3C//DTD SVG 1.1//EN" "http://www.w3.org/Graphics/SVG/1.1/DTD/svg11.dtd"><svg t="1646983870777" class="icon" viewBox="0 0 1024 1024" version="1.1" xmlns="http://www.w3.org/2000/svg" p-id="17953" xmlns:xlink="http://www.w3.org/1999/xlink" width="64" height="64"><defs><style type="text/css"></style></defs><path d="M780.61 669.14L465.65 282.36l-0.16 0.14v-1.13H108.22C82.7 281.37 62 302.06 62 327.59v261.27c0 25.52 20.69 46.22 46.22 46.22h161.99L448.57 854.1c15.67 19.24 43.99 22.15 63.24 6.47 19.25-15.67 22.15-43.99 6.47-63.24l14.67 17.99c16.02 19.66 44.94 22.62 64.61 6.61 19.62-15.97 22.57-44.76 6.71-64.43l15.34 18.84c16.02 19.67 44.94 22.63 64.6 6.62 19.66-16.02 22.63-44.93 6.62-64.6l12.98 15.95c20.22 24.82 59.2 25.37 79.85-2.18 13.94-18.61 11.63-44.96-3.05-62.99z" fill="#1AADF9" p-id="17954"></path><path d="M915.78 281.65h-54.93L551.24 160.13c-31.59-12.4-67.12-7.64-94.18 12.84-61.43 46.5-168.56 127.62-188.08 142.55-27.67 21.16 8.63 72.47 59.94 58.7 35.39-9.49 82.39-36.04 115.72-55.58 19.77-11.59 44.9-6.97 59.35 10.81l281.45 346.44 52.05-28.28a104.7 104.7 0 0 1 49.97-12.7h28.33c25.52 0 46.22-20.69 46.22-46.21V327.87c-0.01-25.53-20.7-46.22-46.23-46.22zM283.01 640.09c15.58-17.46 14.06-44.24-3.39-59.82-17.46-15.58-44.24-14.06-59.82 3.39l-37.1 41.54c-15.58 17.46-14.06 44.24 3.39 59.82 17.46 15.58 44.24 14.06 59.82-3.39l37.1-41.54zM340.04 703.48c15.58-17.46 14.06-44.24-3.39-59.82-17.46-15.58-44.24-14.06-59.82 3.39l-27.95 31.31c-15.58 17.46-14.06 44.24 3.39 59.82 17.46 15.58 44.24 14.06 59.82-3.39l27.95-31.31zM393.88 764.25c14.83-16.61 13.38-42.09-3.23-56.92-16.61-14.83-42.09-13.38-56.92 3.22l-18.2 20.39c-14.83 16.61-13.38 42.09 3.23 56.92 16.61 14.83 42.09 13.38 56.92-3.23l18.2-20.38zM398.88 758.75l-23.44 26.26c-13.38 14.99-12.08 37.99 2.91 51.37 14.99 13.38 37.99 12.08 51.37-2.91l23.43-26.26c13.38-14.99 12.08-37.99-2.91-51.37-14.98-13.38-37.98-12.08-51.36 2.91z" fill="#0C2E97" p-id="17955"></path></svg>