<?xml version="1.0" standalone="no"?><!DOCTYPE svg PUBLIC "-//W3C//DTD SVG 1.1//EN" "http://www.w3.org/Graphics/SVG/1.1/DTD/svg11.dtd"><svg t="1647693490795" class="icon" viewBox="0 0 1036 1024" version="1.1" xmlns="http://www.w3.org/2000/svg" p-id="1856" xmlns:xlink="http://www.w3.org/1999/xlink" width="64.75" height="64"><defs><style type="text/css"></style></defs><path d="M25.122133 232.413867l478.651734-192.9216c9.284267-3.754667 19.626667-3.754667 28.945066 0L1011.370667 232.448a40.721067 40.721067 0 0 1 0 75.1616L532.6848 500.497067c-9.3184 3.754667-19.6608 3.754667-28.945067 0L25.122133 307.541333a40.721067 40.721067 0 0 1 0-75.1616z" fill="#84B6FF" p-id="1857"></path><path d="M25.122133 474.794667l478.651734-192.853334c9.284267-3.754667 19.626667-3.754667 28.945066 0l478.651734 192.853334a40.721067 40.721067 0 0 1 0 75.195733L532.6848 742.912c-9.3184 3.754667-19.6608 3.754667-28.945067 0L25.122133 549.9904a40.721067 40.721067 0 0 1 0-75.1616z" fill="#76D9FF" p-id="1858"></path><path d="M532.241067 500.872533c-9.284267 3.754667-19.626667 3.754667-28.945067 0l-271.1552-109.294933 271.1552-109.294933c9.3184-3.754667 19.6608-3.754667 28.945067 0l271.1552 109.294933-271.1552 109.294933z" fill="#4590FF" p-id="1859"></path><path d="M25.122133 717.243733l478.651734-192.9216c9.284267-3.754667 19.626667-3.754667 28.945066 0l478.651734 192.9216a40.721067 40.721067 0 0 1 0 75.195734L532.6848 985.326933c-9.3184 3.754667-19.6608 3.754667-28.945067 0L25.122133 792.439467a40.721067 40.721067 0 0 1 0-75.195734z" fill="#84B6FF" p-id="1860"></path><path d="M807.2192 633.1392l-271.189333 109.294933c-9.284267 3.754667-19.626667 3.754667-28.945067 0l-271.1552-109.294933 271.1552-109.294933c9.3184-3.754667 19.6608-3.754667 28.945067 0l271.189333 109.294933z" fill="#4590FF" p-id="1861"></path></svg>