<?xml version="1.0" standalone="no"?><!DOCTYPE svg PUBLIC "-//W3C//DTD SVG 1.1//EN" "http://www.w3.org/Graphics/SVG/1.1/DTD/svg11.dtd"><svg t="1648019199487" class="icon" viewBox="0 0 1024 1024" version="1.1" xmlns="http://www.w3.org/2000/svg" p-id="3424" data-spm-anchor-id="a313x.7781069.0.i10" xmlns:xlink="http://www.w3.org/1999/xlink" width="64" height="64"><defs><style type="text/css"></style></defs><path d="M274.660431 646.277908H88.615385c-27.191138 0-49.230769-22.043569-49.23077-49.23077v-186.045046c0-27.191138 22.039631-49.230769 49.23077-49.230769h186.045046c27.191138 0 49.230769 22.039631 49.230769 49.230769v186.045046c0 27.1872-22.039631 49.230769-49.230769 49.23077z m-136.814277-98.461539h87.583508v-87.583507H137.846154v87.583507zM950.445292 646.277908h-519.995077c-27.1872 0-49.230769-22.043569-49.230769-49.23077v-186.045046c0-27.1872 22.043569-49.230769 49.230769-49.230769h519.995077c27.1872 0 49.230769 22.043569 49.23077 49.230769v186.045046c0 27.1872-22.039631 49.230769-49.23077 49.23077z m-470.764307-98.461539h421.533538v-87.583507h-421.533538v87.583507z" fill="#1296db" p-id="3425" data-spm-anchor-id="a313x.7781069.0.i3" class=""></path><path d="M274.660431 323.694277H88.615385c-27.191138 0-49.230769-22.039631-49.23077-49.230769V88.418462c0-27.191138 22.039631-49.230769 49.23077-49.23077h186.045046c27.191138 0 49.230769 22.039631 49.230769 49.23077v186.045046c0 27.191138-22.039631 49.230769-49.230769 49.230769zM137.846154 225.232738h87.583508V137.649231H137.846154v87.583507zM950.445292 323.694277h-519.995077c-27.1872 0-49.230769-22.043569-49.230769-49.230769V88.418462c0-27.191138 22.043569-49.230769 49.230769-49.23077h519.995077c27.1872 0 49.230769 22.039631 49.23077 49.23077v186.045046c0 27.1872-22.039631 49.230769-49.23077 49.230769z m-470.764307-98.461539h421.533538V137.649231h-421.533538v87.583507z" fill="#5fd1e4" p-id="3426" data-spm-anchor-id="a313x.7781069.0.i5" class=""></path><path d="M274.660431 976.368246H88.615385c-27.191138 0-49.230769-22.043569-49.23077-49.230769V741.100308c0-27.1872 22.039631-49.230769 49.23077-49.23077h186.045046c27.191138 0 49.230769 22.043569 49.230769 49.23077v186.037169c0 27.191138-22.039631 49.230769-49.230769 49.230769z m-136.814277-98.461538h87.583508V790.331077H137.846154v87.575631zM950.445292 976.368246h-519.995077c-27.1872 0-49.230769-22.043569-49.230769-49.230769V741.100308c0-27.1872 22.043569-49.230769 49.230769-49.23077h519.995077c27.1872 0 49.230769 22.043569 49.23077 49.23077v186.037169c0 27.191138-22.039631 49.230769-49.23077 49.230769z m-470.764307-98.461538h421.533538V790.331077h-421.533538v87.575631z" fill="#1296db" p-id="3427" data-spm-anchor-id="a313x.7781069.0.i4" class=""></path></svg>