<?xml version="1.0" standalone="no"?><!DOCTYPE svg PUBLIC "-//W3C//DTD SVG 1.1//EN" "http://www.w3.org/Graphics/SVG/1.1/DTD/svg11.dtd"><svg t="1648187611874" class="icon" viewBox="0 0 1024 1024" version="1.1" xmlns="http://www.w3.org/2000/svg" p-id="8815" id="mx_n_1648187611875" xmlns:xlink="http://www.w3.org/1999/xlink" width="64" height="64"><defs><style type="text/css"></style></defs><path d="M438 590v-176h189.68V44H131.116v936H627.68v-390z" fill="#B5DCE6" p-id="8816"></path><path d="M627.68 1008H131.116a28 28 0 0 1-28-28V44a28 28 0 0 1 28-28H627.68a28 28 0 0 1 28 28v318h-56V72H159.116v880H599.68v-312h56v340a28 28 0 0 1-28 28z" fill="#007270" p-id="8817" data-spm-anchor-id="a313x.7781069.0.i30" class=""></path><path d="M925.744 484.2l-147.22-147.212a30 30 0 0 0-42.428 42.424l96 96H484v60h348.096l-85.012 85.008a29.984 29.984 0 0 0-0.008 42.42 29.912 29.912 0 0 0 21.22 8.788 29.904 29.904 0 0 0 21.208-8.78l136.156-136.148 0.084-0.076a29.996 29.996 0 0 0 0-42.424z" fill="#007270" p-id="8818" data-spm-anchor-id="a313x.7781069.0.i29" class=""></path><path d="M213.116 980h-56V70H627.68v56H213.116z" fill="#6E6E96" opacity=".2" p-id="8819"></path></svg>