<?xml version="1.0" standalone="no"?><!DOCTYPE svg PUBLIC "-//W3C//DTD SVG 1.1//EN" "http://www.w3.org/Graphics/SVG/1.1/DTD/svg11.dtd"><svg t="1647396501529" class="icon" viewBox="0 0 1024 1024" version="1.1" xmlns="http://www.w3.org/2000/svg" p-id="5034" xmlns:xlink="http://www.w3.org/1999/xlink" width="64" height="64"><defs><style type="text/css"></style></defs><path d="M591.853211 354.642202c39.926606 0 70.458716 30.53211 70.458716 70.458715v93.944955c0 39.926606-30.53211 70.458716-70.458716 70.458715s-70.458716-30.53211-70.458716-70.458715v-93.944955c0-37.577982 30.53211-70.458716 70.458716-70.458715z" fill="#20DAB4" p-id="5035"></path><path d="M699.889908 1024H324.110092c-117.431193 0-211.376147-96.293578-211.376147-216.073394V349.944954c0-119.779817 93.944954-216.073394 211.376147-216.073394h375.779816c117.431193 0 211.376147 96.293578 211.376147 216.073394v457.981652c0 119.779817-93.944954 216.073394-211.376147 216.073394zM324.110092 180.844037c-91.59633 0-164.40367 75.155963-164.40367 169.100917v457.981652c0 93.944954 72.807339 169.100917 164.40367 169.100917h375.779816c91.59633 0 164.40367-75.155963 164.40367-169.100917V349.944954c0-93.944954-72.807339-169.100917-164.40367-169.100917H324.110092z" fill="#106D5A" p-id="5036"></path><path d="M512 652.917431c-136.220183 0-274.788991-51.669725-380.477064-155.009174l-11.743119-11.743119 32.880733-32.880734c2.348624 4.697248 7.045872 7.045872 11.74312 11.743119 197.284404 192.587156 514.348624 187.889908 706.93578-11.743119l32.880733 32.880734c-105.688073 110.385321-248.954128 166.752294-392.220183 166.752293z" fill="#106D5A" p-id="5037"></path><path d="M521.394495 519.045872c-51.669725 0-93.944954-42.275229-93.944954-93.944955v-93.944954c0-51.669725 42.275229-93.944954 93.944954-93.944954s93.944954 42.275229 93.944955 93.944954v93.944954c0 51.669725-42.275229 93.944954-93.944955 93.944955z m0-234.862386c-25.834862 0-46.972477 21.137615-46.972477 46.972477v93.944954c0 25.834862 21.137615 46.972477 46.972477 46.972477s46.972477-21.137615 46.972477-46.972477v-93.944954c0-25.834862-21.137615-46.972477-46.972477-46.972477zM516.697248 164.40367h-46.972477V75.155963c0-7.045872 2.348624-16.440367 7.045871-23.486238C497.908257 16.440367 544.880734-14.091743 608.293578 7.045872l-16.440367 35.229357C558.972477 32.880734 535.486239 42.275229 519.045872 70.458716c0 2.348624-2.348624 2.348624-2.348624 4.697247V164.40367z" fill="#106D5A" p-id="5038"></path></svg>