<?xml version="1.0" standalone="no"?><!DOCTYPE svg PUBLIC "-//W3C//DTD SVG 1.1//EN" "http://www.w3.org/Graphics/SVG/1.1/DTD/svg11.dtd"><svg t="1646983829055" class="icon" viewBox="0 0 1107 1024" version="1.1" xmlns="http://www.w3.org/2000/svg" p-id="15746" xmlns:xlink="http://www.w3.org/1999/xlink" width="69.1875" height="64"><defs><style type="text/css"></style></defs><path d="M745.51351344 32H356.32432438c-57.08108062 0-103.78378406 46.7027025-103.78378407 103.78378406v103.78378313c0 57.08108062 46.7027025 103.78378406 103.78378406 103.78378406h389.18918907c57.08108062 0 103.78378406-46.7027025 103.78378406-103.78378406V135.78378406c0-57.08108062-46.7027025-103.78378406-103.78378406-103.78378406z m51.89189156 207.56756719c0 28.54054031-23.35135125 51.89189156-51.89189156 51.8918925H356.32432438c-28.54054031 0-51.89189156-23.35135125-51.89189157-51.8918925V135.78378406c0-28.54054031 23.35135125-51.89189156 51.89189156-51.8918925h389.18918907c28.54054031 0 51.89189156 23.35135125 51.89189156 51.8918925v103.78378313z" fill="#AFFCFE" p-id="15747"></path><path d="M135.78378406 213.62162188h830.27026969c57.08108062 0 103.78378406 46.7027025 103.78378406 103.78378312v570.81081094c0 57.08108062-46.7027025 103.78378406-103.78378406 103.78378406H135.78378406c-57.08108062 0-103.78378406-46.7027025-103.78378406-103.78378406V317.405405c0-57.08108062 46.7027025-103.78378406 103.78378406-103.78378312z" fill="#2F77F1" p-id="15748"></path><path d="M1069.83783781 460.10810844H771.45945969v38.91891844c0 14.27027063-11.67567563 25.94594625-25.94594625 25.94594625s-25.94594625-11.67567563-25.94594625-25.94594625v-38.91891844H382.27027062v38.91891844c0 14.27027063-11.67567563 25.94594625-25.94594624 25.94594625s-25.94594625-11.67567563-25.94594625-25.94594625v-38.91891844H32v-51.8918925h298.37837812v-38.91891844c0-14.27027063 11.67567563-25.94594625 25.94594626-25.94594625s25.94594625 11.67567563 25.94594625 25.94594625v38.91891844h337.29729656v-38.91891844c0-14.27027063 11.67567563-25.94594625 25.94594625-25.94594625s25.94594625 11.67567563 25.94594625 25.94594625v38.91891844h298.37837812v51.8918925z" fill="#AFFCFE" p-id="15749"></path></svg>