<?xml version="1.0" standalone="no"?><!DOCTYPE svg PUBLIC "-//W3C//DTD SVG 1.1//EN" "http://www.w3.org/Graphics/SVG/1.1/DTD/svg11.dtd"><svg t="1647607075268" class="icon" viewBox="0 0 1024 1024" version="1.1" xmlns="http://www.w3.org/2000/svg" p-id="11429" xmlns:xlink="http://www.w3.org/1999/xlink" width="64" height="64"><defs><style type="text/css"></style></defs><path d="M728.538977 428.382363c-8.307584 0-17.337566-2.528395-23.839153-6.862787-41.899118-29.257143-80.547443-67.905467-117.75097-117.75097l-0.361199-0.722399-0.361199-0.722399c-2.528395-5.05679-5.417989-10.835979-5.417989-19.865961 0-2.528395 0.722399-5.05679 1.444797-7.585185 0.361199-0.722399 0.361199-1.444797 0.722399-1.805996l0-1.444797 0.722399-1.805996c17.337566-44.788713 46.955908-74.045855 88.132628-87.771429 2.889594-1.083598 5.779189-1.444797 9.391182-1.444797 8.307584 0 17.337566 2.528395 23.839153 6.862787 41.899118 29.257143 80.186243 67.544268 117.389771 117.028571 3.250794 3.250794 10.47478 11.197178 6.862787 23.839153-0.361199 1.805996-0.722399 3.973192-1.444797 5.779189-0.361199 0.722399-0.361199 1.444797-0.722399 1.805996l0 1.444797-0.722399 1.805996c-17.337566 44.788713-46.955908 74.045855-88.132628 87.771429C735.040564 428.021164 732.15097 428.382363 728.538977 428.382363L728.538977 428.382363 728.538977 428.382363zM630.292769 278.845855c24.922751 35.036332 57.430688 67.544268 99.329806 98.968607 26.006349-10.47478 42.260317-27.451146 49.845503-51.651499-24.922751-35.397531-57.430688-67.905467-99.691005-99.329806C656.660317 236.585538 640.406349 253.561905 630.292769 278.845855L630.292769 278.845855zM630.292769 278.845855" p-id="11430" fill="#bfbfbf"></path><path d="M938.034568 691.696649l-206.244797 0c-19.143563 0-34.675132 15.53157-34.675132 34.675132 0 19.143563 15.53157 34.675132 34.675132 34.675132l206.244797 0c19.143563 0 34.675132-15.53157 34.675132-34.675132C972.7097 707.589418 957.178131 691.696649 938.034568 691.696649z" p-id="11431" fill="#bfbfbf"></path><path d="M638.239153 691.696649l-0.361199 0c-19.143563 0-34.675132 15.53157-34.675132 34.675132 0 19.143563 15.53157 34.675132 34.675132 34.675132l0.361199 0c19.143563 0 34.675132-15.53157 34.675132-34.675132C672.914286 707.589418 657.021517 691.696649 638.239153 691.696649z" p-id="11432" fill="#bfbfbf"></path><path d="M938.034568 539.270547l-206.244797 0c-19.143563 0-34.675132 15.53157-34.675132 34.675132 0 19.143563 15.53157 34.675132 34.675132 34.675132l206.244797 0c19.143563 0 34.675132-15.53157 34.675132-34.675132C972.7097 554.802116 957.178131 539.270547 938.034568 539.270547z" p-id="11433" fill="#bfbfbf"></path><path d="M638.239153 539.270547l-0.361199 0c-19.143563 0-34.675132 15.53157-34.675132 34.675132 0 19.143563 15.53157 34.675132 34.675132 34.675132l0.361199 0c19.143563 0 34.675132-15.53157 34.675132-34.675132C672.914286 554.802116 657.021517 539.270547 638.239153 539.270547z" p-id="11434" fill="#bfbfbf"></path><path d="M638.239153 844.483951l-0.361199 0c-19.143563 0-34.675132 15.53157-34.675132 34.675132l0 0c0 19.143563 15.53157 34.675132 34.675132 34.675132l0.361199 0c19.143563 0 34.675132-15.53157 34.675132-34.675132l0 0C672.914286 860.01552 657.021517 844.483951 638.239153 844.483951z" p-id="11435" fill="#bfbfbf"></path><path d="M938.034568 844.483951l-206.244797 0c-19.143563 0-34.675132 15.53157-34.675132 34.675132l0 0c0 19.143563 15.53157 34.675132 34.675132 34.675132l206.244797 0c19.143563 0 34.675132-15.53157 34.675132-34.675132l0 0C972.7097 860.01552 957.178131 844.483951 938.034568 844.483951z" p-id="11436" fill="#bfbfbf"></path><path d="M681.944268 52.373898c-157.844092 0-286.431041 128.948148-286.431041 286.431041 0 37.925926 6.501587 71.156261 19.865961 104.386596l-348.557319 348.557319c-11.197178 11.197178-15.53157 19.865961-15.53157 35.397531l0 86.687831c0 31.063139 26.728748 57.791887 57.791887 57.791887l86.687831 0c15.53157 0 24.561552-6.501587 35.397531-15.53157L273.066667 913.834215l66.46067 0c31.063139 0 57.791887-26.728748 57.791887-57.791887l0-57.791887 57.791887 0c31.063139 0 57.791887-26.728748 57.791887-57.791887l0-66.46067 32.146737-32.146737 0-5.05679 0-8.668783 0-70.795062-20.949559 20.949559-55.624691 55.624691c-11.197178 11.197178-17.698765 24.561552-17.698765 40.093122L450.77672 740.458554l-57.791887 0c-31.063139 0-57.791887 26.728748-57.791887 57.791887l0 57.791887L268.732275 856.042328c-15.53157 0-28.895944 6.501587-40.093122 17.698765L188.907231 913.834215 106.553792 913.834215l0-81.99224 335.192945-335.192945 42.260317-42.260317c-19.865961-33.230335-33.230335-73.323457-33.230335-115.583774 0-126.419753 102.2194-228.639153 228.639153-228.639153 126.419753 0 228.639153 102.2194 228.639153 228.639153 0.722399 43.343915-10.47478 83.798236-30.340741 118.473369l68.989065 0c16.615168-36.119929 25.64515-76.213051 25.64515-118.473369C968.375309 180.960847 839.42716 52.373898 681.944268 52.373898z" p-id="11437" fill="#bfbfbf"></path></svg>