<?xml version="1.0" standalone="no"?><!DOCTYPE svg PUBLIC "-//W3C//DTD SVG 1.1//EN" "http://www.w3.org/Graphics/SVG/1.1/DTD/svg11.dtd"><svg t="1647826489185" class="icon" viewBox="0 0 1024 1024" version="1.1" xmlns="http://www.w3.org/2000/svg" p-id="9047" xmlns:xlink="http://www.w3.org/1999/xlink" width="64" height="64"><defs><style type="text/css"></style></defs><path d="M284.444444 0h455.111112c157.098667 0 284.444444 127.345778 284.444444 284.444444v455.111112c0 157.098667-127.345778 284.444444-284.444444 284.444444H284.444444C127.345778 1024 0 896.654222 0 739.555556V284.444444C0 127.345778 127.345778 0 284.444444 0z m451.214223 392.533333l-136.362667-131.157333c-3.214222-4.295111-7.509333-5.376-11.804444-5.376-4.295111 0-8.590222 2.161778-12.885334 5.376l-251.249778 257.991111c-2.133333 2.133333-3.214222 5.347556-4.266666 7.509333L284.728889 707.413333c-1.080889 6.456889 1.052444 10.752 5.347555 16.128a15.644444 15.644444 0 0 0 12.885334 5.376h3.242666l158.890667-36.551111c3.214222-1.080889 6.428444-2.133333 8.590222-5.376l260.892445-269.795555c6.456889-5.376 6.456889-17.180444 1.080889-24.718223z m-269.482667 267.605334a17.777778 17.777778 0 0 1-12.885333 5.404444 18.602667 18.602667 0 0 1-12.885334-5.404444l-99.84-93.496889c-7.537778-6.456889-7.537778-17.208889-1.080889-24.746667 6.428444-7.509333 17.180444-7.509333 24.689778-1.052444l99.84 93.525333c8.590222 7.509333 9.671111 18.261333 2.161778 25.770667z m45.624889 41.301333a17.92 17.92 0 0 0 0 35.84h196.750222a17.92 17.92 0 0 0 0-35.84h-196.750222z" fill="#1296db" p-id="9048"></path></svg>