<?xml version="1.0" standalone="no"?><!DOCTYPE svg PUBLIC "-//W3C//DTD SVG 1.1//EN" "http://www.w3.org/Graphics/SVG/1.1/DTD/svg11.dtd"><svg t="1647395270175" class="icon" viewBox="0 0 1024 1024" version="1.1" xmlns="http://www.w3.org/2000/svg" p-id="3665" xmlns:xlink="http://www.w3.org/1999/xlink" width="64" height="64"><defs><style type="text/css"></style></defs><path d="M543.6416 824.6272L361.0624 674.7136c-10.4448-7.9872-18.0224-19.5584-21.4016-32.3584-3.6864-14.1312-1.9456-28.5696 5.0176-40.6528 7.4752-13.1072 21.7088-23.04 37.888-26.4192 14.0288-2.8672 27.5456-0.512 37.1712 6.7584l0.4096 0.3072 58.88 53.1456-82.944-267.9808c-8.192-26.4192 4.1984-55.3984 28.2624-65.8432 13.5168-5.9392 28.8768-5.7344 42.1888 0.3072 10.5472 4.8128 19.0464 13.0048 24.2688 23.1424h1.024l49.7664 160.768 204.8-42.496 90.0096 290.6112-292.7616 90.624zM394.1376 598.016c-2.1504 0-4.3008 0.2048-6.656 0.7168-9.4208 1.9456-17.92 7.68-22.016 14.848-8.6016 14.9504-1.536 33.1776 10.24 42.1888l0.3072 0.2048 172.7488 141.824 257.536-79.7696-76.4928-246.784L525.312 513.7408l-50.9952-164.6592h-0.2048l-2.6624-8.4992c-2.3552-7.4752-7.68-13.6192-14.848-16.896-7.168-3.2768-15.1552-3.3792-22.528-0.1024-13.0048 5.7344-19.5584 21.8112-14.9504 36.7616L509.952 653.6192c2.2528 7.2704-0.512 14.9504-6.9632 19.1488-6.4512 4.096-14.5408 3.3792-20.2752-1.7408l-77.6192-70.0416c-2.7648-1.9456-6.5536-2.9696-10.9568-2.9696zM262.144 547.84c-33.1776-117.0432 3.2768-330.8544 3.6864-333.1072l-23.6544-4.096c-0.1024 0.6144-10.1376 59.0848-15.1552 131.3792-6.2464 90.3168-2.2528 161.3824 11.8784 211.6608l-36.2496 9.1136 67.3792 69.4272 26.5216-93.0816L262.144 547.84z" fill="#008997" p-id="3666"></path></svg>